<mxfile host="Electron" agent="Mozilla/5.0 (Windows NT 10.0; Win64; x64) AppleWebKit/537.36 (KHTML, like Gecko) draw.io/25.0.2 Chrome/128.0.6613.186 Electron/32.2.5 Safari/537.36" version="25.0.2">
  <diagram name="Страница — 1" id="zqJPl88ciu_RFIK0iD8W">
    <mxGraphModel dx="3131" dy="3785" grid="1" gridSize="10" guides="1" tooltips="1" connect="1" arrows="1" fold="1" page="1" pageScale="1" pageWidth="827" pageHeight="1169" math="0" shadow="0">
      <root>
        <mxCell id="0" />
        <mxCell id="1" parent="0" />
        <mxCell id="A2N4y2y5TFxQR1r7OfF5-18" style="edgeStyle=orthogonalEdgeStyle;rounded=0;orthogonalLoop=1;jettySize=auto;html=1;exitX=0.75;exitY=0.1;exitDx=0;exitDy=0;exitPerimeter=0;entryX=0;entryY=0.5;entryDx=0;entryDy=0;" edge="1" parent="1" source="A2N4y2y5TFxQR1r7OfF5-1" target="A2N4y2y5TFxQR1r7OfF5-19">
          <mxGeometry relative="1" as="geometry">
            <mxPoint x="310" y="126" as="targetPoint" />
          </mxGeometry>
        </mxCell>
        <mxCell id="A2N4y2y5TFxQR1r7OfF5-20" style="edgeStyle=orthogonalEdgeStyle;rounded=0;orthogonalLoop=1;jettySize=auto;html=1;exitX=1;exitY=0.3333333333333333;exitDx=0;exitDy=0;exitPerimeter=0;entryX=0.5;entryY=0;entryDx=0;entryDy=0;" edge="1" parent="1" source="A2N4y2y5TFxQR1r7OfF5-1" target="A2N4y2y5TFxQR1r7OfF5-21">
          <mxGeometry relative="1" as="geometry">
            <mxPoint x="270" y="260" as="targetPoint" />
          </mxGeometry>
        </mxCell>
        <mxCell id="A2N4y2y5TFxQR1r7OfF5-22" style="edgeStyle=orthogonalEdgeStyle;rounded=0;orthogonalLoop=1;jettySize=auto;html=1;exitX=1;exitY=1;exitDx=0;exitDy=0;exitPerimeter=0;entryX=0.5;entryY=0;entryDx=0;entryDy=0;" edge="1" parent="1" source="A2N4y2y5TFxQR1r7OfF5-1" target="A2N4y2y5TFxQR1r7OfF5-23">
          <mxGeometry relative="1" as="geometry">
            <mxPoint x="110" y="340" as="targetPoint" />
          </mxGeometry>
        </mxCell>
        <mxCell id="A2N4y2y5TFxQR1r7OfF5-24" style="edgeStyle=orthogonalEdgeStyle;rounded=0;orthogonalLoop=1;jettySize=auto;html=1;exitX=0;exitY=1;exitDx=0;exitDy=0;exitPerimeter=0;entryX=0.75;entryY=0;entryDx=0;entryDy=0;" edge="1" parent="1" source="A2N4y2y5TFxQR1r7OfF5-1" target="A2N4y2y5TFxQR1r7OfF5-25">
          <mxGeometry relative="1" as="geometry">
            <mxPoint x="30" y="310" as="targetPoint" />
            <Array as="points">
              <mxPoint x="120" y="180" />
              <mxPoint x="120" y="455" />
              <mxPoint x="-85" y="455" />
            </Array>
          </mxGeometry>
        </mxCell>
        <mxCell id="A2N4y2y5TFxQR1r7OfF5-28" style="edgeStyle=orthogonalEdgeStyle;rounded=0;orthogonalLoop=1;jettySize=auto;html=1;exitX=0;exitY=1;exitDx=0;exitDy=0;exitPerimeter=0;entryX=0.5;entryY=1;entryDx=0;entryDy=0;" edge="1" parent="1" source="A2N4y2y5TFxQR1r7OfF5-1" target="A2N4y2y5TFxQR1r7OfF5-26">
          <mxGeometry relative="1" as="geometry">
            <Array as="points">
              <mxPoint x="-160" y="180" />
            </Array>
          </mxGeometry>
        </mxCell>
        <mxCell id="A2N4y2y5TFxQR1r7OfF5-29" style="edgeStyle=orthogonalEdgeStyle;rounded=0;orthogonalLoop=1;jettySize=auto;html=1;exitX=0.5;exitY=0.5;exitDx=0;exitDy=0;exitPerimeter=0;entryX=0.25;entryY=1;entryDx=0;entryDy=0;" edge="1" parent="1" source="A2N4y2y5TFxQR1r7OfF5-1" target="A2N4y2y5TFxQR1r7OfF5-27">
          <mxGeometry relative="1" as="geometry" />
        </mxCell>
        <mxCell id="A2N4y2y5TFxQR1r7OfF5-32" style="edgeStyle=orthogonalEdgeStyle;rounded=0;orthogonalLoop=1;jettySize=auto;html=1;exitX=0;exitY=0.3333333333333333;exitDx=0;exitDy=0;exitPerimeter=0;entryX=0.5;entryY=1;entryDx=0;entryDy=0;" edge="1" parent="1" source="A2N4y2y5TFxQR1r7OfF5-1" target="A2N4y2y5TFxQR1r7OfF5-30">
          <mxGeometry relative="1" as="geometry">
            <Array as="points">
              <mxPoint x="150" y="140" />
              <mxPoint x="150" y="35" />
              <mxPoint x="180" y="35" />
            </Array>
          </mxGeometry>
        </mxCell>
        <mxCell id="A2N4y2y5TFxQR1r7OfF5-33" style="edgeStyle=orthogonalEdgeStyle;rounded=0;orthogonalLoop=1;jettySize=auto;html=1;exitX=0.5;exitY=0;exitDx=0;exitDy=0;exitPerimeter=0;entryX=0.25;entryY=1;entryDx=0;entryDy=0;" edge="1" parent="1" source="A2N4y2y5TFxQR1r7OfF5-1" target="A2N4y2y5TFxQR1r7OfF5-31">
          <mxGeometry relative="1" as="geometry">
            <Array as="points">
              <mxPoint x="320" y="120" />
              <mxPoint x="320" y="-45" />
              <mxPoint x="520" y="-45" />
              <mxPoint x="520" y="-220" />
            </Array>
          </mxGeometry>
        </mxCell>
        <mxCell id="A2N4y2y5TFxQR1r7OfF5-35" style="edgeStyle=orthogonalEdgeStyle;rounded=0;orthogonalLoop=1;jettySize=auto;html=1;exitX=0.25;exitY=0.1;exitDx=0;exitDy=0;exitPerimeter=0;entryX=0.25;entryY=1;entryDx=0;entryDy=0;" edge="1" parent="1" source="A2N4y2y5TFxQR1r7OfF5-1" target="A2N4y2y5TFxQR1r7OfF5-34">
          <mxGeometry relative="1" as="geometry">
            <Array as="points">
              <mxPoint x="168" y="70" />
              <mxPoint x="255" y="70" />
            </Array>
          </mxGeometry>
        </mxCell>
        <mxCell id="A2N4y2y5TFxQR1r7OfF5-36" style="edgeStyle=orthogonalEdgeStyle;rounded=0;orthogonalLoop=1;jettySize=auto;html=1;exitX=0;exitY=1;exitDx=0;exitDy=0;exitPerimeter=0;entryX=0.722;entryY=0;entryDx=0;entryDy=0;entryPerimeter=0;" edge="1" parent="1" source="A2N4y2y5TFxQR1r7OfF5-1" target="A2N4y2y5TFxQR1r7OfF5-37">
          <mxGeometry relative="1" as="geometry">
            <mxPoint x="-280" y="260" as="targetPoint" />
            <Array as="points">
              <mxPoint x="160" y="200" />
              <mxPoint x="120" y="200" />
              <mxPoint x="120" y="230" />
              <mxPoint x="-340" y="230" />
              <mxPoint x="-340" y="250" />
              <mxPoint x="-300" y="250" />
            </Array>
          </mxGeometry>
        </mxCell>
        <mxCell id="A2N4y2y5TFxQR1r7OfF5-38" style="edgeStyle=orthogonalEdgeStyle;rounded=0;orthogonalLoop=1;jettySize=auto;html=1;exitX=0.5;exitY=0.5;exitDx=0;exitDy=0;exitPerimeter=0;entryX=0.5;entryY=0;entryDx=0;entryDy=0;" edge="1" parent="1" source="A2N4y2y5TFxQR1r7OfF5-1" target="A2N4y2y5TFxQR1r7OfF5-39">
          <mxGeometry relative="1" as="geometry">
            <mxPoint x="280" y="280" as="targetPoint" />
            <Array as="points">
              <mxPoint x="310" y="150" />
              <mxPoint x="310" y="670" />
            </Array>
          </mxGeometry>
        </mxCell>
        <mxCell id="A2N4y2y5TFxQR1r7OfF5-40" style="edgeStyle=orthogonalEdgeStyle;rounded=0;orthogonalLoop=1;jettySize=auto;html=1;exitX=0;exitY=0.3333333333333333;exitDx=0;exitDy=0;exitPerimeter=0;entryX=0.5;entryY=1;entryDx=0;entryDy=0;" edge="1" parent="1" source="A2N4y2y5TFxQR1r7OfF5-1" target="A2N4y2y5TFxQR1r7OfF5-41">
          <mxGeometry relative="1" as="geometry">
            <mxPoint x="80" y="-20" as="targetPoint" />
          </mxGeometry>
        </mxCell>
        <mxCell id="A2N4y2y5TFxQR1r7OfF5-42" style="edgeStyle=orthogonalEdgeStyle;rounded=0;orthogonalLoop=1;jettySize=auto;html=1;exitX=0.5;exitY=0;exitDx=0;exitDy=0;exitPerimeter=0;entryX=0.5;entryY=1;entryDx=0;entryDy=0;" edge="1" parent="1" source="A2N4y2y5TFxQR1r7OfF5-1" target="A2N4y2y5TFxQR1r7OfF5-43">
          <mxGeometry relative="1" as="geometry">
            <mxPoint x="370" y="-170" as="targetPoint" />
            <Array as="points">
              <mxPoint x="175" y="110" />
              <mxPoint x="290" y="110" />
              <mxPoint x="290" y="-60" />
              <mxPoint x="370" y="-60" />
            </Array>
          </mxGeometry>
        </mxCell>
        <mxCell id="A2N4y2y5TFxQR1r7OfF5-45" style="edgeStyle=orthogonalEdgeStyle;rounded=0;orthogonalLoop=1;jettySize=auto;html=1;exitX=1;exitY=1;exitDx=0;exitDy=0;exitPerimeter=0;entryX=0.5;entryY=0;entryDx=0;entryDy=0;" edge="1" parent="1" source="A2N4y2y5TFxQR1r7OfF5-1" target="A2N4y2y5TFxQR1r7OfF5-46">
          <mxGeometry relative="1" as="geometry">
            <mxPoint x="210" y="480" as="targetPoint" />
            <Array as="points">
              <mxPoint x="240" y="180" />
              <mxPoint x="240" y="330" />
              <mxPoint x="220" y="330" />
              <mxPoint x="220" y="480" />
              <mxPoint x="210" y="480" />
            </Array>
          </mxGeometry>
        </mxCell>
        <mxCell id="A2N4y2y5TFxQR1r7OfF5-47" style="edgeStyle=orthogonalEdgeStyle;rounded=0;orthogonalLoop=1;jettySize=auto;html=1;exitX=0;exitY=1;exitDx=0;exitDy=0;exitPerimeter=0;entryX=0.5;entryY=0;entryDx=0;entryDy=0;" edge="1" parent="1" source="A2N4y2y5TFxQR1r7OfF5-1" target="A2N4y2y5TFxQR1r7OfF5-48">
          <mxGeometry relative="1" as="geometry">
            <mxPoint x="-340" y="640" as="targetPoint" />
          </mxGeometry>
        </mxCell>
        <mxCell id="A2N4y2y5TFxQR1r7OfF5-58" style="edgeStyle=orthogonalEdgeStyle;rounded=0;orthogonalLoop=1;jettySize=auto;html=1;exitX=1;exitY=1;exitDx=0;exitDy=0;exitPerimeter=0;entryX=0.25;entryY=0;entryDx=0;entryDy=0;" edge="1" parent="1" source="A2N4y2y5TFxQR1r7OfF5-1" target="A2N4y2y5TFxQR1r7OfF5-59">
          <mxGeometry relative="1" as="geometry">
            <mxPoint x="500" y="350" as="targetPoint" />
          </mxGeometry>
        </mxCell>
        <mxCell id="A2N4y2y5TFxQR1r7OfF5-64" style="edgeStyle=orthogonalEdgeStyle;rounded=0;orthogonalLoop=1;jettySize=auto;html=1;exitX=0.5;exitY=0.5;exitDx=0;exitDy=0;exitPerimeter=0;entryX=0;entryY=0.5;entryDx=0;entryDy=0;" edge="1" parent="1" source="A2N4y2y5TFxQR1r7OfF5-1" target="A2N4y2y5TFxQR1r7OfF5-65">
          <mxGeometry relative="1" as="geometry">
            <mxPoint x="-671.0526315789475" y="120" as="targetPoint" />
          </mxGeometry>
        </mxCell>
        <mxCell id="A2N4y2y5TFxQR1r7OfF5-1" value="Actor" style="shape=umlActor;verticalLabelPosition=bottom;verticalAlign=top;html=1;outlineConnect=0;" vertex="1" parent="1">
          <mxGeometry x="160" y="120" width="30" height="60" as="geometry" />
        </mxCell>
        <mxCell id="A2N4y2y5TFxQR1r7OfF5-19" value="Зарегистрироваться" style="rounded=1;whiteSpace=wrap;html=1;shadow=0;comic=0;labelBackgroundColor=none;strokeWidth=1;fontFamily=Verdana;fontSize=12;align=center;arcSize=50;" vertex="1" parent="1">
          <mxGeometry x="580" y="60" width="180" height="70" as="geometry" />
        </mxCell>
        <mxCell id="A2N4y2y5TFxQR1r7OfF5-21" value="Войти" style="rounded=1;whiteSpace=wrap;html=1;shadow=0;comic=0;labelBackgroundColor=none;strokeWidth=1;fontFamily=Verdana;fontSize=12;align=center;arcSize=50;" vertex="1" parent="1">
          <mxGeometry x="330" y="515" width="180" height="70" as="geometry" />
        </mxCell>
        <mxCell id="A2N4y2y5TFxQR1r7OfF5-23" value="Просматривать чат" style="rounded=1;whiteSpace=wrap;html=1;shadow=0;comic=0;labelBackgroundColor=none;strokeWidth=1;fontFamily=Verdana;fontSize=12;align=center;arcSize=50;" vertex="1" parent="1">
          <mxGeometry x="-10" y="580" width="180" height="70" as="geometry" />
        </mxCell>
        <mxCell id="A2N4y2y5TFxQR1r7OfF5-25" value="Отправить сообщение" style="rounded=1;whiteSpace=wrap;html=1;shadow=0;comic=0;labelBackgroundColor=none;strokeWidth=1;fontFamily=Verdana;fontSize=12;align=center;arcSize=50;" vertex="1" parent="1">
          <mxGeometry x="-220" y="730" width="180" height="70" as="geometry" />
        </mxCell>
        <mxCell id="A2N4y2y5TFxQR1r7OfF5-26" value="Отправить голосовое сообщение" style="rounded=1;whiteSpace=wrap;html=1;shadow=0;comic=0;labelBackgroundColor=none;strokeWidth=1;fontFamily=Verdana;fontSize=12;align=center;arcSize=50;" vertex="1" parent="1">
          <mxGeometry x="-250" y="-130" width="180" height="70" as="geometry" />
        </mxCell>
        <mxCell id="A2N4y2y5TFxQR1r7OfF5-27" value="Отправить изображение/видео/документ" style="rounded=1;whiteSpace=wrap;html=1;shadow=0;comic=0;labelBackgroundColor=none;strokeWidth=1;fontFamily=Verdana;fontSize=12;align=center;arcSize=50;" vertex="1" parent="1">
          <mxGeometry x="-90" y="-290" width="180" height="70" as="geometry" />
        </mxCell>
        <mxCell id="A2N4y2y5TFxQR1r7OfF5-30" value="Добавить контакт" style="rounded=1;whiteSpace=wrap;html=1;shadow=0;comic=0;labelBackgroundColor=none;strokeWidth=1;fontFamily=Verdana;fontSize=12;align=center;arcSize=50;" vertex="1" parent="1">
          <mxGeometry x="90" y="-470" width="180" height="70" as="geometry" />
        </mxCell>
        <mxCell id="A2N4y2y5TFxQR1r7OfF5-31" value="Создать новый чат" style="rounded=1;whiteSpace=wrap;html=1;shadow=0;comic=0;labelBackgroundColor=none;strokeWidth=1;fontFamily=Verdana;fontSize=12;align=center;arcSize=50;" vertex="1" parent="1">
          <mxGeometry x="480" y="-330" width="180" height="70" as="geometry" />
        </mxCell>
        <mxCell id="A2N4y2y5TFxQR1r7OfF5-34" value="Удалить чат" style="rounded=1;whiteSpace=wrap;html=1;shadow=0;comic=0;labelBackgroundColor=none;strokeWidth=1;fontFamily=Verdana;fontSize=12;align=center;arcSize=50;" vertex="1" parent="1">
          <mxGeometry x="210" y="-370" width="180" height="70" as="geometry" />
        </mxCell>
        <mxCell id="A2N4y2y5TFxQR1r7OfF5-37" value="Создать группу" style="rounded=1;whiteSpace=wrap;html=1;shadow=0;comic=0;labelBackgroundColor=none;strokeWidth=1;fontFamily=Verdana;fontSize=12;align=center;arcSize=50;" vertex="1" parent="1">
          <mxGeometry x="-430" y="290" width="180" height="70" as="geometry" />
        </mxCell>
        <mxCell id="A2N4y2y5TFxQR1r7OfF5-39" value="Просматривать сообщения" style="rounded=1;whiteSpace=wrap;html=1;shadow=0;comic=0;labelBackgroundColor=none;strokeWidth=1;fontFamily=Verdana;fontSize=12;align=center;arcSize=50;" vertex="1" parent="1">
          <mxGeometry x="220" y="690" width="180" height="70" as="geometry" />
        </mxCell>
        <mxCell id="A2N4y2y5TFxQR1r7OfF5-41" value="Оставить группу" style="rounded=1;whiteSpace=wrap;html=1;shadow=0;comic=0;labelBackgroundColor=none;strokeWidth=1;fontFamily=Verdana;fontSize=12;align=center;arcSize=50;" vertex="1" parent="1">
          <mxGeometry x="-10" y="-100" width="180" height="70" as="geometry" />
        </mxCell>
        <mxCell id="A2N4y2y5TFxQR1r7OfF5-43" value="Поставить лайк на сообщение" style="rounded=1;whiteSpace=wrap;html=1;shadow=0;comic=0;labelBackgroundColor=none;strokeWidth=1;fontFamily=Verdana;fontSize=12;align=center;arcSize=50;" vertex="1" parent="1">
          <mxGeometry x="280" y="-250" width="180" height="70" as="geometry" />
        </mxCell>
        <mxCell id="A2N4y2y5TFxQR1r7OfF5-46" value="Настроить уведомления" style="rounded=1;whiteSpace=wrap;html=1;shadow=0;comic=0;labelBackgroundColor=none;strokeWidth=1;fontFamily=Verdana;fontSize=12;align=center;arcSize=50;" vertex="1" parent="1">
          <mxGeometry x="120" y="490" width="180" height="70" as="geometry" />
        </mxCell>
        <mxCell id="A2N4y2y5TFxQR1r7OfF5-48" value="Выход из аккаунта" style="rounded=1;whiteSpace=wrap;html=1;shadow=0;comic=0;labelBackgroundColor=none;strokeWidth=1;fontFamily=Verdana;fontSize=12;align=center;arcSize=50;" vertex="1" parent="1">
          <mxGeometry x="-430" y="660" width="180" height="70" as="geometry" />
        </mxCell>
        <mxCell id="A2N4y2y5TFxQR1r7OfF5-50" value="&amp;lt;&amp;lt;include&amp;gt;&amp;gt;" style="html=1;verticalAlign=bottom;labelBackgroundColor=none;endArrow=open;endFill=0;dashed=1;rounded=0;exitX=1;exitY=0.5;exitDx=0;exitDy=0;entryX=0;entryY=0.5;entryDx=0;entryDy=0;" edge="1" parent="1" source="A2N4y2y5TFxQR1r7OfF5-19" target="A2N4y2y5TFxQR1r7OfF5-53">
          <mxGeometry width="160" relative="1" as="geometry">
            <mxPoint x="790" y="94.47" as="sourcePoint" />
            <mxPoint x="950" y="94.47" as="targetPoint" />
          </mxGeometry>
        </mxCell>
        <mxCell id="A2N4y2y5TFxQR1r7OfF5-53" value="Проверка уникальности номера" style="rounded=1;whiteSpace=wrap;html=1;shadow=0;comic=0;labelBackgroundColor=none;strokeWidth=1;fontFamily=Verdana;fontSize=12;align=center;arcSize=50;" vertex="1" parent="1">
          <mxGeometry x="950" y="60" width="180" height="70" as="geometry" />
        </mxCell>
        <mxCell id="A2N4y2y5TFxQR1r7OfF5-54" value="&amp;lt;&amp;lt;include&amp;gt;&amp;gt;" style="html=1;verticalAlign=bottom;labelBackgroundColor=none;endArrow=open;endFill=0;dashed=1;rounded=0;exitX=1;exitY=0.5;exitDx=0;exitDy=0;entryX=0;entryY=0.5;entryDx=0;entryDy=0;" edge="1" parent="1" source="A2N4y2y5TFxQR1r7OfF5-21" target="A2N4y2y5TFxQR1r7OfF5-55">
          <mxGeometry width="160" relative="1" as="geometry">
            <mxPoint x="530" y="600" as="sourcePoint" />
            <mxPoint x="690" y="600" as="targetPoint" />
          </mxGeometry>
        </mxCell>
        <mxCell id="A2N4y2y5TFxQR1r7OfF5-55" value="Отправка кодов подтверждения" style="rounded=1;whiteSpace=wrap;html=1;shadow=0;comic=0;labelBackgroundColor=none;strokeWidth=1;fontFamily=Verdana;fontSize=12;align=center;arcSize=50;" vertex="1" parent="1">
          <mxGeometry x="710" y="580" width="180" height="70" as="geometry" />
        </mxCell>
        <mxCell id="A2N4y2y5TFxQR1r7OfF5-56" value="&amp;lt;&amp;lt;include&amp;gt;&amp;gt;" style="html=1;verticalAlign=bottom;labelBackgroundColor=none;endArrow=open;endFill=0;dashed=1;rounded=0;exitX=0.75;exitY=1;exitDx=0;exitDy=0;entryX=0;entryY=0.5;entryDx=0;entryDy=0;" edge="1" parent="1" source="A2N4y2y5TFxQR1r7OfF5-25" target="A2N4y2y5TFxQR1r7OfF5-57">
          <mxGeometry width="160" relative="1" as="geometry">
            <mxPoint x="-100" y="860" as="sourcePoint" />
            <mxPoint x="60" y="860" as="targetPoint" />
          </mxGeometry>
        </mxCell>
        <mxCell id="A2N4y2y5TFxQR1r7OfF5-57" value="Обработка сообщений" style="rounded=1;whiteSpace=wrap;html=1;shadow=0;comic=0;labelBackgroundColor=none;strokeWidth=1;fontFamily=Verdana;fontSize=12;align=center;arcSize=50;" vertex="1" parent="1">
          <mxGeometry x="70" y="840" width="180" height="70" as="geometry" />
        </mxCell>
        <mxCell id="A2N4y2y5TFxQR1r7OfF5-59" value="Установить двухфакторную аутентификацию" style="rounded=1;whiteSpace=wrap;html=1;shadow=0;comic=0;labelBackgroundColor=none;strokeWidth=1;fontFamily=Verdana;fontSize=12;align=center;arcSize=50;" vertex="1" parent="1">
          <mxGeometry x="460" y="350" width="180" height="70" as="geometry" />
        </mxCell>
        <mxCell id="A2N4y2y5TFxQR1r7OfF5-60" value="&amp;lt;&amp;lt;include&amp;gt;&amp;gt;" style="html=1;verticalAlign=bottom;labelBackgroundColor=none;endArrow=open;endFill=0;dashed=1;rounded=0;exitX=1;exitY=0.5;exitDx=0;exitDy=0;entryX=0;entryY=0.5;entryDx=0;entryDy=0;" edge="1" parent="1" source="A2N4y2y5TFxQR1r7OfF5-59" target="A2N4y2y5TFxQR1r7OfF5-61">
          <mxGeometry width="160" relative="1" as="geometry">
            <mxPoint x="660" y="384.47" as="sourcePoint" />
            <mxPoint x="820" y="384.47" as="targetPoint" />
          </mxGeometry>
        </mxCell>
        <mxCell id="A2N4y2y5TFxQR1r7OfF5-61" value=" Обработка двухфакторной аутентификации" style="rounded=1;whiteSpace=wrap;html=1;shadow=0;comic=0;labelBackgroundColor=none;strokeWidth=1;fontFamily=Verdana;fontSize=12;align=center;arcSize=50;" vertex="1" parent="1">
          <mxGeometry x="830" y="350" width="180" height="70" as="geometry" />
        </mxCell>
        <mxCell id="A2N4y2y5TFxQR1r7OfF5-62" value="Добавить участников в группу" style="rounded=1;whiteSpace=wrap;html=1;shadow=0;comic=0;labelBackgroundColor=none;strokeWidth=1;fontFamily=Verdana;fontSize=12;align=center;arcSize=50;" vertex="1" parent="1">
          <mxGeometry x="-760" y="290" width="180" height="70" as="geometry" />
        </mxCell>
        <mxCell id="A2N4y2y5TFxQR1r7OfF5-63" value="&amp;lt;&amp;lt;extend&amp;gt;&amp;gt;" style="html=1;verticalAlign=bottom;labelBackgroundColor=none;endArrow=open;endFill=0;dashed=1;rounded=0;exitX=1;exitY=0.5;exitDx=0;exitDy=0;entryX=0;entryY=0.5;entryDx=0;entryDy=0;" edge="1" parent="1" source="A2N4y2y5TFxQR1r7OfF5-62" target="A2N4y2y5TFxQR1r7OfF5-37">
          <mxGeometry width="160" relative="1" as="geometry">
            <mxPoint x="-570" y="370" as="sourcePoint" />
            <mxPoint x="-410" y="370" as="targetPoint" />
          </mxGeometry>
        </mxCell>
        <mxCell id="A2N4y2y5TFxQR1r7OfF5-65" value="Изменить настройки аккаунта" style="rounded=1;whiteSpace=wrap;html=1;shadow=0;comic=0;labelBackgroundColor=none;strokeWidth=1;fontFamily=Verdana;fontSize=12;align=center;arcSize=50;" vertex="1" parent="1">
          <mxGeometry x="590" y="210" width="180" height="70" as="geometry" />
        </mxCell>
        <mxCell id="A2N4y2y5TFxQR1r7OfF5-66" value="&amp;lt;&amp;lt;extend&amp;gt;&amp;gt;" style="html=1;verticalAlign=bottom;labelBackgroundColor=none;endArrow=open;endFill=0;dashed=1;rounded=0;exitX=0.75;exitY=0;exitDx=0;exitDy=0;entryX=0;entryY=0.5;entryDx=0;entryDy=0;" edge="1" parent="1" source="A2N4y2y5TFxQR1r7OfF5-46" target="A2N4y2y5TFxQR1r7OfF5-65">
          <mxGeometry width="160" relative="1" as="geometry">
            <mxPoint x="254" y="400" as="sourcePoint" />
            <mxPoint x="414" y="400" as="targetPoint" />
          </mxGeometry>
        </mxCell>
        <mxCell id="A2N4y2y5TFxQR1r7OfF5-67" value="Искать чат или контакт" style="rounded=1;whiteSpace=wrap;html=1;shadow=0;comic=0;labelBackgroundColor=none;strokeWidth=1;fontFamily=Verdana;fontSize=12;align=center;arcSize=50;" vertex="1" parent="1">
          <mxGeometry x="430" y="820" width="180" height="70" as="geometry" />
        </mxCell>
        <mxCell id="A2N4y2y5TFxQR1r7OfF5-68" value="&amp;lt;&amp;lt;extend&amp;gt;&amp;gt;" style="html=1;verticalAlign=bottom;labelBackgroundColor=none;endArrow=open;endFill=0;dashed=1;rounded=0;exitX=0.25;exitY=0;exitDx=0;exitDy=0;entryX=0.75;entryY=1;entryDx=0;entryDy=0;" edge="1" parent="1" source="A2N4y2y5TFxQR1r7OfF5-67" target="A2N4y2y5TFxQR1r7OfF5-39">
          <mxGeometry width="160" relative="1" as="geometry">
            <mxPoint x="340" y="660" as="sourcePoint" />
            <mxPoint x="500" y="660" as="targetPoint" />
          </mxGeometry>
        </mxCell>
        <mxCell id="A2N4y2y5TFxQR1r7OfF5-69" value="Добавить описание к чату" style="rounded=1;whiteSpace=wrap;html=1;shadow=0;comic=0;labelBackgroundColor=none;strokeWidth=1;fontFamily=Verdana;fontSize=12;align=center;arcSize=50;" vertex="1" parent="1">
          <mxGeometry x="560" y="-500" width="180" height="70" as="geometry" />
        </mxCell>
        <mxCell id="A2N4y2y5TFxQR1r7OfF5-70" value="&amp;lt;&amp;lt;extend&amp;gt;&amp;gt;" style="html=1;verticalAlign=bottom;labelBackgroundColor=none;endArrow=open;endFill=0;dashed=1;rounded=0;exitX=0.25;exitY=1;exitDx=0;exitDy=0;entryX=0.5;entryY=0;entryDx=0;entryDy=0;" edge="1" parent="1" source="A2N4y2y5TFxQR1r7OfF5-69" target="A2N4y2y5TFxQR1r7OfF5-31">
          <mxGeometry width="160" relative="1" as="geometry">
            <mxPoint x="630" y="-310" as="sourcePoint" />
            <mxPoint x="790" y="-310" as="targetPoint" />
          </mxGeometry>
        </mxCell>
        <mxCell id="A2N4y2y5TFxQR1r7OfF5-71" value="Изменить настройки конфиденциальности" style="rounded=1;whiteSpace=wrap;html=1;shadow=0;comic=0;labelBackgroundColor=none;strokeWidth=1;fontFamily=Verdana;fontSize=12;align=center;arcSize=50;" vertex="1" parent="1">
          <mxGeometry x="10" y="700" width="180" height="70" as="geometry" />
        </mxCell>
        <mxCell id="A2N4y2y5TFxQR1r7OfF5-72" value="&amp;lt;&amp;lt;extend&amp;gt;&amp;gt;" style="html=1;verticalAlign=bottom;labelBackgroundColor=none;endArrow=open;endFill=0;dashed=1;rounded=0;exitX=0.75;exitY=0;exitDx=0;exitDy=0;entryX=0.5;entryY=1;entryDx=0;entryDy=0;" edge="1" parent="1" source="A2N4y2y5TFxQR1r7OfF5-71" target="A2N4y2y5TFxQR1r7OfF5-46">
          <mxGeometry width="160" relative="1" as="geometry">
            <mxPoint x="250" y="540" as="sourcePoint" />
            <mxPoint x="410" y="540" as="targetPoint" />
          </mxGeometry>
        </mxCell>
        <mxCell id="A2N4y2y5TFxQR1r7OfF5-76" style="edgeStyle=orthogonalEdgeStyle;rounded=0;orthogonalLoop=1;jettySize=auto;html=1;exitX=0.25;exitY=0.1;exitDx=0;exitDy=0;exitPerimeter=0;entryX=0.5;entryY=1;entryDx=0;entryDy=0;" edge="1" parent="1" source="A2N4y2y5TFxQR1r7OfF5-73" target="A2N4y2y5TFxQR1r7OfF5-53">
          <mxGeometry relative="1" as="geometry">
            <mxPoint x="870" y="230" as="targetPoint" />
            <Array as="points">
              <mxPoint x="1040" y="286" />
            </Array>
          </mxGeometry>
        </mxCell>
        <mxCell id="A2N4y2y5TFxQR1r7OfF5-77" style="edgeStyle=orthogonalEdgeStyle;rounded=0;orthogonalLoop=1;jettySize=auto;html=1;exitX=0;exitY=1;exitDx=0;exitDy=0;exitPerimeter=0;entryX=0.75;entryY=0;entryDx=0;entryDy=0;" edge="1" parent="1" source="A2N4y2y5TFxQR1r7OfF5-73" target="A2N4y2y5TFxQR1r7OfF5-55">
          <mxGeometry relative="1" as="geometry" />
        </mxCell>
        <mxCell id="A2N4y2y5TFxQR1r7OfF5-78" style="edgeStyle=orthogonalEdgeStyle;rounded=0;orthogonalLoop=1;jettySize=auto;html=1;exitX=0.5;exitY=0.5;exitDx=0;exitDy=0;exitPerimeter=0;entryX=0.5;entryY=0;entryDx=0;entryDy=0;" edge="1" parent="1" source="A2N4y2y5TFxQR1r7OfF5-73" target="A2N4y2y5TFxQR1r7OfF5-79">
          <mxGeometry relative="1" as="geometry">
            <mxPoint x="1160" y="370" as="targetPoint" />
          </mxGeometry>
        </mxCell>
        <mxCell id="A2N4y2y5TFxQR1r7OfF5-80" style="edgeStyle=orthogonalEdgeStyle;rounded=0;orthogonalLoop=1;jettySize=auto;html=1;exitX=1;exitY=1;exitDx=0;exitDy=0;exitPerimeter=0;entryX=0.5;entryY=0;entryDx=0;entryDy=0;entryPerimeter=0;" edge="1" parent="1" source="A2N4y2y5TFxQR1r7OfF5-73" target="A2N4y2y5TFxQR1r7OfF5-81">
          <mxGeometry relative="1" as="geometry">
            <mxPoint x="1440" y="490" as="targetPoint" />
          </mxGeometry>
        </mxCell>
        <mxCell id="A2N4y2y5TFxQR1r7OfF5-83" style="edgeStyle=orthogonalEdgeStyle;rounded=0;orthogonalLoop=1;jettySize=auto;html=1;exitX=0.5;exitY=0;exitDx=0;exitDy=0;exitPerimeter=0;entryX=0.5;entryY=1;entryDx=0;entryDy=0;" edge="1" parent="1" source="A2N4y2y5TFxQR1r7OfF5-73" target="A2N4y2y5TFxQR1r7OfF5-82">
          <mxGeometry relative="1" as="geometry" />
        </mxCell>
        <mxCell id="A2N4y2y5TFxQR1r7OfF5-84" style="edgeStyle=orthogonalEdgeStyle;rounded=0;orthogonalLoop=1;jettySize=auto;html=1;exitX=0.75;exitY=0.1;exitDx=0;exitDy=0;exitPerimeter=0;entryX=0.5;entryY=1;entryDx=0;entryDy=0;" edge="1" parent="1" source="A2N4y2y5TFxQR1r7OfF5-73" target="A2N4y2y5TFxQR1r7OfF5-85">
          <mxGeometry relative="1" as="geometry">
            <mxPoint x="1490" y="240" as="targetPoint" />
          </mxGeometry>
        </mxCell>
        <mxCell id="A2N4y2y5TFxQR1r7OfF5-87" style="edgeStyle=orthogonalEdgeStyle;rounded=0;orthogonalLoop=1;jettySize=auto;html=1;exitX=1;exitY=1;exitDx=0;exitDy=0;exitPerimeter=0;entryX=0;entryY=0.5;entryDx=0;entryDy=0;" edge="1" parent="1" source="A2N4y2y5TFxQR1r7OfF5-73" target="A2N4y2y5TFxQR1r7OfF5-86">
          <mxGeometry relative="1" as="geometry">
            <Array as="points">
              <mxPoint x="1400" y="340" />
              <mxPoint x="1400" y="385" />
            </Array>
          </mxGeometry>
        </mxCell>
        <mxCell id="A2N4y2y5TFxQR1r7OfF5-88" style="edgeStyle=orthogonalEdgeStyle;rounded=0;orthogonalLoop=1;jettySize=auto;html=1;exitX=0.5;exitY=0.5;exitDx=0;exitDy=0;exitPerimeter=0;entryX=0.5;entryY=1;entryDx=0;entryDy=0;" edge="1" parent="1" source="A2N4y2y5TFxQR1r7OfF5-73" target="A2N4y2y5TFxQR1r7OfF5-89">
          <mxGeometry relative="1" as="geometry">
            <mxPoint x="1690" y="270" as="targetPoint" />
          </mxGeometry>
        </mxCell>
        <mxCell id="A2N4y2y5TFxQR1r7OfF5-73" value="system" style="shape=umlActor;verticalLabelPosition=bottom;verticalAlign=top;html=1;" vertex="1" parent="1">
          <mxGeometry x="1340" y="280" width="30" height="60" as="geometry" />
        </mxCell>
        <mxCell id="A2N4y2y5TFxQR1r7OfF5-79" value="Обновление чатов" style="rounded=1;whiteSpace=wrap;html=1;shadow=0;comic=0;labelBackgroundColor=none;strokeWidth=1;fontFamily=Verdana;fontSize=12;align=center;arcSize=50;" vertex="1" parent="1">
          <mxGeometry x="1070" y="370" width="180" height="70" as="geometry" />
        </mxCell>
        <mxCell id="A2N4y2y5TFxQR1r7OfF5-81" value="Отправка уведомлений" style="rounded=1;whiteSpace=wrap;html=1;shadow=0;comic=0;labelBackgroundColor=none;strokeWidth=1;fontFamily=Verdana;fontSize=12;align=center;arcSize=50;" vertex="1" parent="1">
          <mxGeometry x="1350" y="490" width="180" height="70" as="geometry" />
        </mxCell>
        <mxCell id="A2N4y2y5TFxQR1r7OfF5-82" value="Шифрование сообщений" style="rounded=1;whiteSpace=wrap;html=1;shadow=0;comic=0;labelBackgroundColor=none;strokeWidth=1;fontFamily=Verdana;fontSize=12;align=center;arcSize=50;" vertex="1" parent="1">
          <mxGeometry x="1210" y="115" width="180" height="70" as="geometry" />
        </mxCell>
        <mxCell id="A2N4y2y5TFxQR1r7OfF5-85" value="Синхронизация истории" style="rounded=1;whiteSpace=wrap;html=1;shadow=0;comic=0;labelBackgroundColor=none;strokeWidth=1;fontFamily=Verdana;fontSize=12;align=center;arcSize=50;" vertex="1" parent="1">
          <mxGeometry x="1410" y="160" width="180" height="70" as="geometry" />
        </mxCell>
        <mxCell id="A2N4y2y5TFxQR1r7OfF5-86" value="Управление данными" style="rounded=1;whiteSpace=wrap;html=1;shadow=0;comic=0;labelBackgroundColor=none;strokeWidth=1;fontFamily=Verdana;fontSize=12;align=center;arcSize=50;" vertex="1" parent="1">
          <mxGeometry x="1740" y="350" width="180" height="70" as="geometry" />
        </mxCell>
        <mxCell id="A2N4y2y5TFxQR1r7OfF5-89" value="Обработка ошибок" style="rounded=1;whiteSpace=wrap;html=1;shadow=0;comic=0;labelBackgroundColor=none;strokeWidth=1;fontFamily=Verdana;fontSize=12;align=center;arcSize=50;" vertex="1" parent="1">
          <mxGeometry x="1600" y="200" width="180" height="70" as="geometry" />
        </mxCell>
        <mxCell id="A2N4y2y5TFxQR1r7OfF5-90" value="&amp;lt;&amp;lt;include&amp;gt;&amp;gt;" style="html=1;verticalAlign=bottom;labelBackgroundColor=none;endArrow=open;endFill=0;dashed=1;rounded=0;exitX=0.75;exitY=0;exitDx=0;exitDy=0;entryX=0;entryY=0.5;entryDx=0;entryDy=0;" edge="1" parent="1" source="A2N4y2y5TFxQR1r7OfF5-79" target="A2N4y2y5TFxQR1r7OfF5-85">
          <mxGeometry width="160" relative="1" as="geometry">
            <mxPoint x="1210" y="270" as="sourcePoint" />
            <mxPoint x="1370" y="270" as="targetPoint" />
          </mxGeometry>
        </mxCell>
        <mxCell id="A2N4y2y5TFxQR1r7OfF5-91" value="Уведомление о новых версиях" style="rounded=1;whiteSpace=wrap;html=1;shadow=0;comic=0;labelBackgroundColor=none;strokeWidth=1;fontFamily=Verdana;fontSize=12;align=center;arcSize=50;" vertex="1" parent="1">
          <mxGeometry x="1350" y="620" width="180" height="70" as="geometry" />
        </mxCell>
        <mxCell id="A2N4y2y5TFxQR1r7OfF5-92" value="&amp;lt;&amp;lt;include&amp;gt;&amp;gt;" style="html=1;verticalAlign=bottom;labelBackgroundColor=none;endArrow=open;endFill=0;dashed=1;rounded=0;exitX=0.5;exitY=1;exitDx=0;exitDy=0;" edge="1" parent="1" source="A2N4y2y5TFxQR1r7OfF5-81" target="A2N4y2y5TFxQR1r7OfF5-91">
          <mxGeometry width="160" relative="1" as="geometry">
            <mxPoint x="1230" y="400" as="sourcePoint" />
            <mxPoint x="1390" y="400" as="targetPoint" />
          </mxGeometry>
        </mxCell>
        <mxCell id="A2N4y2y5TFxQR1r7OfF5-93" value="Архивирование данных" style="rounded=1;whiteSpace=wrap;html=1;shadow=0;comic=0;labelBackgroundColor=none;strokeWidth=1;fontFamily=Verdana;fontSize=12;align=center;arcSize=50;" vertex="1" parent="1">
          <mxGeometry x="1770" y="500" width="180" height="70" as="geometry" />
        </mxCell>
        <mxCell id="A2N4y2y5TFxQR1r7OfF5-94" value="&amp;lt;&amp;lt;extend&amp;gt;&amp;gt;" style="html=1;verticalAlign=bottom;labelBackgroundColor=none;endArrow=open;endFill=0;dashed=1;rounded=0;exitX=0.75;exitY=0;exitDx=0;exitDy=0;entryX=0.5;entryY=1;entryDx=0;entryDy=0;" edge="1" parent="1" source="A2N4y2y5TFxQR1r7OfF5-93" target="A2N4y2y5TFxQR1r7OfF5-86">
          <mxGeometry width="160" relative="1" as="geometry">
            <mxPoint x="1810" y="400" as="sourcePoint" />
            <mxPoint x="1970" y="400" as="targetPoint" />
          </mxGeometry>
        </mxCell>
        <mxCell id="A2N4y2y5TFxQR1r7OfF5-95" value="Поддержка мультиязычности" style="rounded=1;whiteSpace=wrap;html=1;shadow=0;comic=0;labelBackgroundColor=none;strokeWidth=1;fontFamily=Verdana;fontSize=12;align=center;arcSize=50;" vertex="1" parent="1">
          <mxGeometry x="1070" y="550" width="180" height="70" as="geometry" />
        </mxCell>
        <mxCell id="A2N4y2y5TFxQR1r7OfF5-96" value="&amp;lt;&amp;lt;extend&amp;gt;&amp;gt;" style="html=1;verticalAlign=bottom;labelBackgroundColor=none;endArrow=open;endFill=0;dashed=1;rounded=0;exitX=0.5;exitY=0;exitDx=0;exitDy=0;entryX=0.5;entryY=1;entryDx=0;entryDy=0;" edge="1" parent="1" source="A2N4y2y5TFxQR1r7OfF5-95" target="A2N4y2y5TFxQR1r7OfF5-79">
          <mxGeometry width="160" relative="1" as="geometry">
            <mxPoint x="1190" y="400" as="sourcePoint" />
            <mxPoint x="1350" y="400" as="targetPoint" />
          </mxGeometry>
        </mxCell>
        <mxCell id="A2N4y2y5TFxQR1r7OfF5-97" value="Создание отчетов о сбоях" style="rounded=1;whiteSpace=wrap;html=1;shadow=0;comic=0;labelBackgroundColor=none;strokeWidth=1;fontFamily=Verdana;fontSize=12;align=center;arcSize=50;" vertex="1" parent="1">
          <mxGeometry x="1640" y="40" width="180" height="70" as="geometry" />
        </mxCell>
        <mxCell id="A2N4y2y5TFxQR1r7OfF5-98" value="&amp;lt;&amp;lt;extend&amp;gt;&amp;gt;" style="html=1;verticalAlign=bottom;labelBackgroundColor=none;endArrow=open;endFill=0;dashed=1;rounded=0;exitX=0.5;exitY=1;exitDx=0;exitDy=0;entryX=0.5;entryY=0;entryDx=0;entryDy=0;" edge="1" parent="1" source="A2N4y2y5TFxQR1r7OfF5-97" target="A2N4y2y5TFxQR1r7OfF5-89">
          <mxGeometry width="160" relative="1" as="geometry">
            <mxPoint x="1720" y="240" as="sourcePoint" />
            <mxPoint x="1880" y="240" as="targetPoint" />
          </mxGeometry>
        </mxCell>
      </root>
    </mxGraphModel>
  </diagram>
</mxfile>
